<?xml version="1.0" encoding="UTF-8"?>
<svg id="Camada_1" xmlns="http://www.w3.org/2000/svg" version="1.1" viewBox="0 0 800 800">
  <!-- Generator: Adobe Illustrator 29.5.0, SVG Export Plug-In . SVG Version: 2.1.0 Build 137)  -->
  <path d="M668.12,324.43c12.23,3.01,24.63,5.47,35.63,11.9,3.06,1.79,9.92,6.14,10.35,9.75-.63,10.5.8,21.88,0,32.27-1.46,19.18-2.86,39.99-12.51,57.01-3.86,6.81-12.45,17.05-19.76,20.02-1.38.56-6.7,1.56-7.05,3.02l6.59,28.45c2.36,19.89,3.36,40.14,2.58,60.28-.82,21.16-2.08,41.44-6.6,62.08-9.47,43.24-22.44,90.59-56.23,121.33-14.72,13.4-44.11,24.6-63.15,31.08-27.13,9.23-54.89,14.1-83.63,13.52-20.79-.42-39.98-4.88-59.77-10.59-47.35-13.65-85.12-39.15-121.78-71.28-28.71-25.16-56.87-53.18-75.86-86.62-6.86-12.09-12.2-27.64-15.31-41.23-.45-1.97-.79-8.64-2.2-9.54-1.73-.69-2.67,1.35-3.8,2.09-17.8,11.7-42.2-7.06-55.05-19.02-21.56-20.07-41.07-49.99-50.65-77.91-8.5-24.78-4.08-51.01,11.17-72.16,6.41-8.89,11.11-11.73,20.31-16.96,4.38-2.49,2.28-3.5,1.81-7.41-.13-1.05.07-2.18-.05-3.3-1.23-11.75-1.8-24.94-2.46-36.9-.84-15.08-.51-30.1-.82-45.24-.05-2.21-.84-5.4-.82-7.56.25-23.33,8.68-55.07,16.52-77.21,12.49-35.23,28.07-67.09,53.16-95.09,23.06-25.73,64.16-45.61,96.86-55.57,32.68-9.96,63.36-17.55,97.85-18.56,6.39-.19,14.72-.47,20.97,0,38.3,2.92,74.28,9.39,108.93,26.75,17.1,8.56,33.48,18.06,47.68,31.05,26.76,24.49,50.82,54.93,67.14,87.39,14.39,28.61,24.29,59.68,30.33,91.11,3.55,18.46,7.3,37.11,9.09,55.82.15,1.61-.43,6.3.52,7.23ZM556.49,83.45c-30.64-26.2-73.78-43.38-113.17-50.77-26.61-4.99-55.7-6.23-82.47-2.16-9.15,1.39-17.63,2.71-26.69,4.72-36.6,8.13-69.6,17.32-102.91,35.28-19.91,10.74-36.53,25.99-50.65,43.57-3.36,4.18-5.29,8.09-8.21,12.31-1.76,2.55-4.2,4.87-5.97,7.44-14.5,21.04-23.24,46.4-31.27,70.49-5.27,15.8-8.63,30.2-11.21,46.58-.49,3.13-.8,5.3-1.15,8.48-2.35,21.48-1.27,48.66.47,70.32.8,9.97,1.11,20.23,2.51,30.15.14,1.03.62,1.99.75,3.01.27,2.08-.15,4.36.66,6.46.46.65.53.2.94.1,1.11-.27,2.07-.83,3.25-.95,6.25-.66,15.13,1.03,21.24,2.63,1.69.44,8.4,3.22,9.27,3.13.68-.07,1.44-.87,2.25-1.06,12.07-2.81,23.45-4.68,35.61-7.95,44.12-11.84,88.79-23.44,132.87-35.47,1.95-.53,3.51-1.84,5.31-2.23,16.88-3.57,33.76-5.85,50.6-8.86,6.4-1.14,13.04-2.13,19.65-2.96,34.21-4.27,75.29-3.13,106.02,14.16,7.93,4.46,17.33,11.22,26.72,12.22,6.52.69,21.05.61,27.66.01,3.94-.36,10.54-2.11,13.45-4.77,10.97-10.03,23.37-10.91,37.59-12.87,12.89-1.78,25.83-3.08,38.98-1.65,1.96.21,3.84,1.37,6.07.84-.3-3.71-.84-7.41-1.25-11.1-1.19-10.75-3.1-21.4-5.12-32.15-8.32-44.25-22.21-89.5-45.06-128.73-15.34-26.35-32.97-47.26-55.99-67.15-.36-.31-.48-.86-.76-1.1ZM523.4,342.68c-15.73-14.95-37.23-19.67-57.85-21.93-15.18-1.66-31.47-.98-46.52.81-8.76,1.04-17.22,2.76-25.74,5.25-7.66,2.23-15.75,5.76-19.19,13.47-6.6,14.79-4.74,25.55-3.4,40.99,1.12,12.96,2.07,24.49,4.59,37.29.47,2.37.08,4.12,1.07,6.88,6.97,19.42,22.19,27.23,41.49,30.96,28.16,5.44,65.47,4.2,84.34-20.28,6.46-8.38,15.03-25.45,18.55-35.47,4.57-13.01,8.57-31.24,7.43-44.95-.26-3.09-1.58-6.38-1.79-9.52-.07-.22-2.61-3.16-2.98-3.51ZM627.32,330.93c-12.33.69-34.73,3.69-43.26,13.27-17.3,19.42-1.05,59.57,7.12,80.42,5,12.76,8.1,24.26,22.5,29.01,11.74,3.87,25.04,4.43,37.39,4.07,8.59-.25,21.23-1.02,29.1-4.4,13.28-5.71,22.28-21.01,26.26-34.46,2.98-10.04,3.41-18.86,3.45-29.18.04-9.6,1.37-29.46-1.58-37.79-3.42-9.67-18.66-14.42-27.7-16.69-17.02-4.26-35.64-5.24-53.28-4.26ZM336.68,337.19c-.86-1.08-5.21.82-6.43,1.12-26.83,6.4-53.75,13.79-80.48,20.44-21.46,5.34-43.58,9.76-64.6,16.23-3.48,1.07-6.69,2.78-10.45,3.16-.09,1.68,1.62,1.06,2.62,1.36,1.19.35,2.36,1.05,3.66,1.16.11.9-.7,1.52-1.47,1.66-2.48-.28-5.94-.05-8.27-.5-8.8-1.7-16.5-6.36-24.91-9.01-4.96-1.56-16.58-1.77-21.45.1-24.63,9.44-38.17,42.51-36.87,67.44,1.29,24.77,22.69,60.81,38.31,79.79,13.37,16.25,38.69,42.4,61.81,38.73,4.89-.78,6.98-4.93,10.02-5.5,5.37-1.02,4.71,6.9,5.14,9.99s2.32,8.93,3.28,12.21c14.31,48.6,54.88,88.12,92.49,119.83,25.46,21.47,53.63,39.58,83.9,53.45,13.08,6,25.14,11.49,39.13,15.31,6.09,1.66,13.45,2.6,19.08,4.79,6.82,2.66,17.49,2.32,24.78,2.85,14.4,1.06,29.35,1.69,43.59-.81,24.09-4.24,45.2-12.29,68.02-21.17,8.72-3.39,20.25-6.54,27.94-11.42,28.89-18.34,45.98-50.23,56.34-81.85,6.84-20.88,12.5-41.84,15.77-63.38,1.35-8.9,1.66-18.1,2.58-27.16.21-2.06,1.32-4.2.79-6.53-.94.89-1.65,2.7-2.17,3.9-3.52,8.23-12.32,32.03-19.2,36.49-2.44,1.58-4.87,1.69-7.4.32-5.19-2.82-7.64-19.2-9.01-24.91-2.36-9.81-4.74-19.55-7.72-29.13-5.34-17.19-25.35-32.06-41.31-39.1-1.28-.57-6.26-2.68-7.26-2.74-.68-.04-1.47.38-2.11.64-5.29,2.21-10.07,6.96-15.32,8.96-13.09,5-24.75,3.26-37.16-2.39-5.72-2.61-8.76-5.27-15.65-4.77-7.65.56-18.05,2.63-25.38,4.77-24.17,7.08-51.52,20.39-67.66,40.38-8.33,10.31-9.38,22.8-9,35.85.31,10.53,3.29,18.15-1.16,28.54-1.35,3.15-2.92,4.85-6.14,6.01-5.15,1.85-16.68,1.66-22.21.82-1.97-.3-3.53-1.31-5.12-1.58-2.25-.38-4.91-.11-7.26-.7-10.57-2.64-21.39-9.02-31.55-12.84l-24.52-12.75c-14.54-12.18-29.56-23.28-41.24-38.33-11.81-15.22-21.87-33.58-29.13-51.27-6.17-15.05-8.11-28.53-10.47-44.39-.34-2.28-.96-4.42-1.22-6.31-.64-4.66-.17-11.32-.46-16.29-.22-3.81-1.06-8.02-1.27-11.71-.12-2.12.2-6.62.55-8.72.13-.75.22-1.39,1.14-1.14.86,1.46,0,2.7.04,3.93.09,2.2.13,5.54.37,7.59,1.51,12.77,1.75,25.83,3.37,38.51,3.33,26.08,13.89,49.64,27.56,72.11,11.8,19.37,25.89,33.43,43.65,47.23,14.88,11.55,32.62,18.75,49.92,26.3,14.92,6.51,26.19,8.67,42.71,6.08,2.92-.46,4.97-2.52,6.26-5.05,2.15-4.24,1.52-6.29,2.04-10.52.92-7.42,1.5-17.65.82-25.18-.3-3.38-.66-3.81.02-7.49,2.26-12.23,8.98-20.83,17.97-28.94,23.38-21.08,54.52-34.26,85.64-37.9,8.67-1.02,12.28,2.45,19.61,5.52,13.01,5.46,23.4,5.98,36.6.86,4.55-1.76,9.15-6.87,13.94-8.25,3.4-.98,5.08-.02,8.23,1.38,17.91,7.93,36.13,19.2,43.47,38.19,5.8,14.99,7.65,31.62,12.57,46.9,1.28,3.99,2.22,11.36,8.31,7.9,2.56-1.45,2.4-2.72,3.7-4.68,6.38-9.66,14.68-26.62,16.99-37.87,2.96-14.36,2.88-31.84,1.77-46.38-.96-12.51-2.2-26.85-6.06-38.75-.53-1.64-3.2-8.62-4.09-9.52s-3.88.15-5.13.31c-9.89,1.29-20.93,2.01-30.95.81-16.72-2-29.35-3.79-38.53-19.26-.73-1.22-.57-3.09-2.33-3.74,3.62,9.21,10.08,16.78,13.53,26.04,3.77,15.92-6.86,26.62-21.38,30.4-1.09.28-5.73.98-6.39.32-2.45-2.44,4.32-2.62,5.13-2.83,7.96-2.06,17.91-8.01,19.8-16.63,2.72-12.44-5.12-21.55-10.64-31.7-8.46-15.56-14.7-33.59-21.63-49.98-3.36-7.96-9.14-24.82-14.87-30.36-4.45-4.3-12.99-4.93-17.38-.21-5.2,5.6-6.93,17.94-9.02,25.32-5.35,18.82-12.62,40.58-25.95,55.31-5.3,5.86-14.89,12.49-18.43,18.82-9.13,16.36,3.68,28.81,19.53,31.17,1.94.29,4.88-.84,4.77,2.13-9.13-.32-20.89-3.2-26.37-11.1s-4.54-17.59.9-25.47c1.09-1.57,2.56-2.93,3.7-4.46-4.2,1.33-8.3,3.23-12.55,4.41-15.77,4.38-40.54,4.94-56.66,2.61-2.46-.36-7.69-1.85-10.47-2.51-19.69-4.66-33.23-10.85-40.72-30.89-5.88-15.73-8.93-33.73-10.67-50.47-.82-7.84-.54-20.1-3.98-27.01-1.45-2.92-5.86-6.5-8.71-8.04-1.67-.9-5.92-1.97-7.14-2.81-.65-.45-.47-1.4-.8-2.03Z"/>
  <path d="M610.37,558.07c1.29,1.28,3.24.91,2.29,4.03-.15.48-2.49,2.78-3.05,3.22-2.86,2.29-10.55,4.55-14.27,4.99-2.16.25-4.53-.16-6.69.01-8.87.71-17.61,2.08-26.41,3.33-13.71,1.95-27.5.69-41,2.13-1.87.2-3.75,1.12-5.84,1.28-8.46.65-20.44.28-28.91-.43-7.15-.6-13.7-1.18-20.7-2.75-2.13-.48-4.81-.63-6.72-1.66-.4-1.46,3.76-2.9,4.93-3.44,16.91-7.73,36.22-16.21,53.57-22.22,9.35-3.24,27.79-6.81,36.83-2.68,1.58.72,3.52,2.37,5.01,3.36,2.86-.99,5.87-1.78,8.84-2.35,12.25-2.33,23.03-2.8,33.91,4.41,4.36,2.89,5.14,5.72,8.21,8.75ZM557.58,550.55c-.51-.6-.4-1.84-1.81-2.58-5.28-2.76-18.26-3.9-23.95-2.23-14.56,4.26-28.76,8.82-42.7,15.09-5.43,2.44-10.88,5.03-16.23,7.66-.6.3-1.05-.09-.84,1.02l13.07-1.37c19.7-7.75,38.66-11.3,59.35-5.52,2.27.63,7.48-1.48,10.33-1.85,14.17-1.85,29.99-.83,44.32-.45,3,.08,6.02-.09,9.02-.02.09-.77.02-1.25-.4-1.9-.83-1.31-6.55-5.94-8.09-6.98-7.72-5.21-16.08-5.18-25.22-4.51-1.94.14-7.96.84-9.51,1.37-1.4.48-6,3.85-7.34,2.27ZM607.3,562.82l-38.75.85c-7.61-2.76-15.58,2.16-22.21,2.48-1.09.05-3.82-1.13-5.18-1.47-3.62-.89-6.47-1.57-10.28-1.44-6.21.22-13.15.39-19.22,1.3-11.11,1.66-22.06,5.78-33.14,7.48-1.4.22-3.61-.62-4.38.85,3.33.17,6.99,1.09,10.24,1.28,12.47.71,25.34-.11,37.71-.85,15.7-.94,32.43-.88,47.83-3.26,10.79-1.67,22.2-1.33,32.7-4.15,1.57-.42,3.73-1.7,4.68-3.06Z"/>
  <path d="M516.57,477.11c-1.11,1.23-1.58,3.7-.38,4.9.55.55,3.91,1.83,4.73,1.98,3.62.65,10.33-1.37,12.69-4.29.7-.86,1.32-4.7,2.7-4.41,2.64.55-1.82,6.88-2.86,7.81-4.63,4.16-14.75,5.3-19.13.36-.44-.49-1.64-2.78-1.64-3.36,0-.52,1.47-3.87,1.87-4.38.33-.41,3.21-2.82,3.66-3.04,3.12-1.51,9.16-2.43,12.62-1.97,6.8.9,16.36,4.45,21.61,8.96,1.16,1,3.58,3.09,3.37,4.6-.43,3.09-3.35-1.96-4.04-2.67-6.34-6.48-20.44-9.38-29.17-7.9-1.63.28-4.93,2.18-6.03,3.4Z"/>
  <path d="M586.36,479.9c.89.87-2.56,3.3-3.2,3.7-7.89,4.95-20.43,7.39-29.69,6.78-1.28-.08-6.54-.48-6.38-2.33,1.05-1.87,2.71-.63,4.29-.6,3.72.08,8.1.22,11.76,0,2.68-.16,9.29-2.12,11.92-3.16,2.42-.96,6.55-3.58,8.78-4.2.85-.24,1.65-.25,2.52-.2Z"/>
</svg>